G04*
G04 #@! TF.GenerationSoftware,Altium Limited,Altium Designer,22.2.1 (43)*
G04*
G04 Layer_Color=16711935*
%FSLAX25Y25*%
%MOIN*%
G70*
G04*
G04 #@! TF.SameCoordinates,5B388EAC-A044-4A36-8472-2700C52922B7*
G04*
G04*
G04 #@! TF.FilePolarity,Positive*
G04*
G01*
G75*
%ADD16C,0.01968*%
D16*
X274955Y226045D02*
X274884Y227035D01*
X274673Y228005D01*
X274326Y228934D01*
X273851Y229805D01*
X273256Y230600D01*
X272554Y231301D01*
X271760Y231896D01*
X270889Y232371D01*
X269959Y232718D01*
X268990Y232929D01*
X268000Y233000D01*
X269Y59520D02*
X311Y58508D01*
X436Y57503D01*
X644Y56511D01*
X933Y55540D01*
X1302Y54597D01*
X1747Y53687D01*
X2265Y52817D01*
X2854Y51992D01*
X3509Y51219D01*
X4226Y50503D01*
X4999Y49849D01*
X5824Y49261D01*
X6694Y48743D01*
X7604Y48298D01*
X8548Y47930D01*
X9519Y47642D01*
X10511Y47435D01*
X11472Y233000D02*
X10472Y232956D01*
X9480Y232826D01*
X8503Y232609D01*
X7548Y232308D01*
X6624Y231925D01*
X5736Y231463D01*
X4892Y230925D01*
X4098Y230316D01*
X3360Y229640D01*
X2684Y228902D01*
X2075Y228108D01*
X1537Y227264D01*
X1075Y226376D01*
X692Y225452D01*
X391Y224497D01*
X174Y223520D01*
X44Y222528D01*
X0Y221528D01*
X80127Y233123D02*
X100995D01*
X109884Y242012D01*
X158285Y10330D02*
X159404Y9211D01*
Y8307D02*
Y9211D01*
Y8307D02*
X268232D01*
X158285Y10330D02*
Y26236D01*
X268232Y8307D02*
X274933Y26054D01*
X274955Y226045D01*
X120798Y31598D02*
X152923D01*
X158285Y26236D01*
X109884Y242012D02*
X231322D01*
X47300Y233123D02*
X80127D01*
X11925D02*
X47300D01*
X231322Y242012D02*
X240322Y233012D01*
X267500D01*
X10511Y47435D02*
X120798Y31598D01*
X0Y221528D02*
X269Y59520D01*
X274955Y226045D02*
X274884Y227035D01*
X274673Y228005D01*
X274326Y228934D01*
X273851Y229805D01*
X273256Y230600D01*
X272554Y231301D01*
X271760Y231896D01*
X270889Y232371D01*
X269959Y232718D01*
X268990Y232929D01*
X268000Y233000D01*
X269Y59520D02*
X311Y58508D01*
X436Y57503D01*
X644Y56511D01*
X933Y55540D01*
X1302Y54597D01*
X1747Y53687D01*
X2265Y52817D01*
X2854Y51992D01*
X3509Y51219D01*
X4226Y50503D01*
X4999Y49849D01*
X5824Y49261D01*
X6694Y48743D01*
X7604Y48298D01*
X8548Y47930D01*
X9519Y47642D01*
X10511Y47435D01*
X11472Y233000D02*
X10472Y232956D01*
X9480Y232826D01*
X8503Y232609D01*
X7548Y232308D01*
X6624Y231925D01*
X5736Y231463D01*
X4892Y230925D01*
X4098Y230316D01*
X3360Y229640D01*
X2684Y228902D01*
X2075Y228108D01*
X1537Y227264D01*
X1075Y226376D01*
X692Y225452D01*
X391Y224497D01*
X174Y223520D01*
X44Y222528D01*
X0Y221528D01*
X80127Y233123D02*
X100995D01*
X109884Y242012D01*
X158285Y10330D02*
X159404Y9211D01*
Y8307D02*
Y9211D01*
Y8307D02*
X268232D01*
X158285Y10330D02*
Y26236D01*
X268232Y8307D02*
X274933Y26054D01*
X274955Y226045D01*
X120798Y31598D02*
X152923D01*
X158285Y26236D01*
X109884Y242012D02*
X231322D01*
X47300Y233123D02*
X80127D01*
X11925D02*
X47300D01*
X231322Y242012D02*
X240322Y233012D01*
X267500D01*
X10511Y47435D02*
X120798Y31598D01*
X0Y221528D02*
X269Y59520D01*
X274955Y226045D02*
X274884Y227035D01*
X274673Y228005D01*
X274326Y228934D01*
X273851Y229805D01*
X273256Y230600D01*
X272554Y231301D01*
X271760Y231896D01*
X270889Y232371D01*
X269959Y232718D01*
X268990Y232929D01*
X268000Y233000D01*
X269Y59520D02*
X311Y58508D01*
X436Y57503D01*
X644Y56511D01*
X933Y55540D01*
X1302Y54597D01*
X1747Y53687D01*
X2265Y52817D01*
X2854Y51992D01*
X3509Y51219D01*
X4226Y50503D01*
X4999Y49849D01*
X5824Y49261D01*
X6694Y48743D01*
X7604Y48298D01*
X8548Y47930D01*
X9519Y47642D01*
X10511Y47435D01*
X11472Y233000D02*
X10472Y232956D01*
X9480Y232826D01*
X8503Y232609D01*
X7548Y232308D01*
X6624Y231925D01*
X5736Y231463D01*
X4892Y230925D01*
X4098Y230316D01*
X3360Y229640D01*
X2684Y228902D01*
X2075Y228108D01*
X1537Y227264D01*
X1075Y226376D01*
X692Y225452D01*
X391Y224497D01*
X174Y223520D01*
X44Y222528D01*
X0Y221528D01*
X80127Y233123D02*
X100995D01*
X109884Y242012D01*
X158285Y10330D02*
X159404Y9211D01*
Y8307D02*
Y9211D01*
Y8307D02*
X268232D01*
X158285Y10330D02*
Y26236D01*
X268232Y8307D02*
X274933Y26054D01*
X274955Y226045D01*
X120798Y31598D02*
X152923D01*
X158285Y26236D01*
X109884Y242012D02*
X231322D01*
X47300Y233123D02*
X80127D01*
X11925D02*
X47300D01*
X231322Y242012D02*
X240322Y233012D01*
X267500D01*
X10511Y47435D02*
X120798Y31598D01*
X0Y221528D02*
X269Y59520D01*
M02*
