G04*
G04 #@! TF.GenerationSoftware,Altium Limited,Altium Designer,22.2.1 (43)*
G04*
G04 Layer_Color=65535*
%FSLAX25Y25*%
%MOIN*%
G70*
G04*
G04 #@! TF.SameCoordinates,5B388EAC-A044-4A36-8472-2700C52922B7*
G04*
G04*
G04 #@! TF.FilePolarity,Positive*
G04*
G01*
G75*
%ADD10C,0.00984*%
%ADD11C,0.00600*%
%ADD12C,0.01000*%
%ADD13C,0.00800*%
%ADD14C,0.00394*%
%ADD15C,0.00787*%
%ADD16C,0.01968*%
%ADD17C,0.01200*%
%ADD18R,0.04921X0.01772*%
G36*
X244434Y208397D02*
Y208268D01*
X244304D01*
Y208138D01*
X244174D01*
Y208527D01*
X244045D01*
Y209565D01*
X244174D01*
Y209695D01*
X244434D01*
Y208527D01*
Y208397D01*
D02*
G37*
G36*
X244174Y210474D02*
Y210604D01*
X244304D01*
Y210344D01*
X244174D01*
Y210474D01*
D02*
G37*
G36*
X244304Y212032D02*
Y211902D01*
X244174D01*
Y212032D01*
X244304D01*
D02*
G37*
D10*
X88732Y58067D02*
X87994Y58494D01*
Y57641D01*
X88732Y58067D01*
X268546Y154487D02*
X267808Y154914D01*
Y154061D01*
X268546Y154487D01*
X266492Y163109D02*
X265754Y163535D01*
Y162682D01*
X266492Y163109D01*
X47262Y129504D02*
X46524Y129930D01*
Y129078D01*
X47262Y129504D01*
X55101Y116990D02*
X54362Y117416D01*
Y116564D01*
X55101Y116990D01*
X38492Y212352D02*
X37754Y212779D01*
Y211926D01*
X38492Y212352D01*
X50724Y78547D02*
X49986Y78973D01*
Y78121D01*
X50724Y78547D01*
X65980Y50660D02*
X65242Y51086D01*
Y50233D01*
X65980Y50660D01*
X223531Y40260D02*
X222793Y40686D01*
Y39834D01*
X223531Y40260D01*
X267986Y82273D02*
X267248Y82699D01*
Y81847D01*
X267986Y82273D01*
X59391Y199500D02*
X58653Y199926D01*
Y199074D01*
X59391Y199500D01*
D11*
X100327Y94742D02*
X100298Y95744D01*
X100213Y96743D01*
X100072Y97736D01*
X99875Y98719D01*
X99622Y99689D01*
X99315Y100644D01*
X98954Y101579D01*
X98541Y102493D01*
X98077Y103382D01*
X97563Y104243D01*
X97002Y105074D01*
X96394Y105871D01*
X95743Y106633D01*
X95049Y107357D01*
X94315Y108041D01*
X93544Y108682D01*
X92738Y109278D01*
X91899Y109828D01*
X91031Y110329D01*
X90135Y110781D01*
X89216Y111181D01*
X88275Y111528D01*
X87317Y111822D01*
X86343Y112060D01*
X85357Y112244D01*
X84362Y112371D01*
X83362Y112442D01*
X82360Y112456D01*
X81358Y112414D01*
X80360Y112315D01*
X79369Y112159D01*
X78389Y111948D01*
X77422Y111682D01*
X76472Y111361D01*
X75542Y110987D01*
X74634Y110561D01*
X73752Y110085D01*
X72898Y109559D01*
X72075Y108986D01*
X71286Y108367D01*
X70534Y107704D01*
X69820Y107000D01*
X69147Y106257D01*
X68517Y105477D01*
X67932Y104662D01*
X67394Y103816D01*
X66905Y102941D01*
X66466Y102039D01*
X66079Y101114D01*
X65745Y100169D01*
X65465Y99206D01*
X65240Y98229D01*
X65071Y97240D01*
X64957Y96244D01*
X64901Y95243D01*
X64901Y94240D01*
X64957Y93239D01*
X65071Y92243D01*
X65240Y91255D01*
X65465Y90277D01*
X65745Y89315D01*
X66079Y88369D01*
X66466Y87444D01*
X66905Y86542D01*
X67394Y85667D01*
X67932Y84821D01*
X68517Y84006D01*
X69147Y83226D01*
X69820Y82483D01*
X70534Y81779D01*
X71286Y81116D01*
X72075Y80498D01*
X72898Y79924D01*
X73752Y79399D01*
X74634Y78922D01*
X75542Y78496D01*
X76472Y78122D01*
X77422Y77802D01*
X78389Y77535D01*
X79369Y77324D01*
X80360Y77169D01*
X81358Y77069D01*
X82359Y77027D01*
X83362Y77041D01*
X84362Y77112D01*
X85357Y77239D01*
X86343Y77423D01*
X87317Y77662D01*
X88275Y77955D01*
X89216Y78303D01*
X90135Y78703D01*
X91031Y79154D01*
X91899Y79655D01*
X92738Y80205D01*
X93544Y80801D01*
X94315Y81442D01*
X95049Y82126D01*
X95743Y82850D01*
X96394Y83612D01*
X97002Y84409D01*
X97563Y85240D01*
X98077Y86101D01*
X98541Y86990D01*
X98954Y87904D01*
X99315Y88840D01*
X99622Y89794D01*
X99875Y90764D01*
X100072Y91747D01*
X100213Y92740D01*
X100298Y93739D01*
X100327Y94742D01*
X232918Y156266D02*
X243351D01*
Y161778D01*
X232918D02*
X243351D01*
X232918Y156266D02*
Y161778D01*
X104595Y106760D02*
Y240618D01*
X246327D01*
Y106760D02*
Y240618D01*
X104595Y106760D02*
X246327D01*
X233072Y144057D02*
X243506D01*
X233072Y138545D02*
Y144057D01*
Y138545D02*
X243506D01*
Y144057D01*
X223952Y130233D02*
Y135744D01*
X213519Y130233D02*
X223952D01*
X213519D02*
Y135744D01*
X223952D01*
X232816Y144969D02*
Y155402D01*
Y144969D02*
X238328D01*
Y155402D01*
X232816D02*
X238328D01*
X228702Y230929D02*
Y236441D01*
X218269Y230929D02*
X228702D01*
X218269D02*
Y236441D01*
X228702D01*
X213049Y231016D02*
Y236527D01*
X202616Y231016D02*
X213049D01*
X202616D02*
Y236527D01*
X213049D01*
X115526Y233244D02*
Y238756D01*
X125959D01*
Y233244D02*
Y238756D01*
X115526Y233244D02*
X125959D01*
X136732Y238756D02*
X147165D01*
X136732Y233244D02*
Y238756D01*
Y233244D02*
X147165D01*
Y238756D01*
X91110Y117742D02*
X91110Y110242D01*
X74110Y117742D02*
X74110Y110242D01*
Y117742D02*
X91110Y117742D01*
X68202Y42742D02*
X73714D01*
X68202D02*
Y53175D01*
X73714D01*
Y42742D02*
Y53175D01*
X254256Y195617D02*
Y206050D01*
X248744D02*
X254256D01*
X248744Y195617D02*
Y206050D01*
Y195617D02*
X254256D01*
X232498Y43791D02*
Y54224D01*
X226986D02*
X232498D01*
X226986Y43791D02*
Y54224D01*
Y43791D02*
X232498D01*
X47284Y209664D02*
X57717D01*
X47284Y204152D02*
Y209664D01*
Y204152D02*
X57717D01*
Y209664D01*
X54387Y87360D02*
Y97794D01*
X48875D02*
X54387D01*
X48875Y87360D02*
Y97794D01*
Y87360D02*
X54387D01*
X48961Y75783D02*
Y86216D01*
Y75783D02*
X54473D01*
Y86216D01*
X48961D02*
X54473D01*
X146283Y92244D02*
Y97756D01*
X156717D01*
Y92244D02*
Y97756D01*
X146283Y92244D02*
X156717D01*
X133470Y92213D02*
Y97724D01*
X143903D01*
Y92213D02*
Y97724D01*
X133470Y92213D02*
X143903D01*
X234244Y210717D02*
X239756D01*
Y200284D02*
Y210717D01*
X234244Y200284D02*
X239756D01*
X234244D02*
Y210717D01*
X223744Y211216D02*
X229256D01*
Y200783D02*
Y211216D01*
X223744Y200783D02*
X229256D01*
X223744D02*
Y211216D01*
X59636Y193237D02*
X65148D01*
Y182804D02*
Y193237D01*
X59636Y182804D02*
X65148D01*
X59636D02*
Y193237D01*
X32783Y198244D02*
Y203756D01*
X43216D01*
Y198244D02*
Y203756D01*
X32783Y198244D02*
X43216D01*
X19783D02*
Y203756D01*
X30217D01*
Y198244D02*
Y203756D01*
X19783Y198244D02*
X30217D01*
X46575Y185311D02*
X52087D01*
X46575D02*
Y195744D01*
X52087D01*
Y185311D02*
Y195744D01*
X11142D02*
X16654D01*
Y185311D02*
Y195744D01*
X11142Y185311D02*
X16654D01*
X11142D02*
Y195744D01*
X232593Y85787D02*
X238105D01*
Y75354D02*
Y85787D01*
X232593Y75354D02*
X238105D01*
X232593D02*
Y85787D01*
X232333Y98516D02*
X237845D01*
Y88083D02*
Y98516D01*
X232333Y88083D02*
X237845D01*
X232333D02*
Y98516D01*
X256110Y157926D02*
X261622D01*
Y147493D02*
Y157926D01*
X256110Y147493D02*
X261622D01*
X256110D02*
Y157926D01*
X126587Y199455D02*
X137021D01*
Y204967D01*
X126587D02*
X137021D01*
X126587Y199455D02*
Y204967D01*
X253961Y149233D02*
Y155926D01*
X249039Y149233D02*
Y155926D01*
X253961Y155926D02*
Y155926D01*
X253390Y155926D02*
X253961D01*
X253390Y155434D02*
Y155926D01*
X249610Y155434D02*
Y155926D01*
X249039D02*
X249610D01*
X253961Y149233D02*
Y149233D01*
X253390Y149233D02*
X253961D01*
X249039D02*
Y149233D01*
Y149233D02*
X249571D01*
X83784Y211087D02*
X94217D01*
Y216599D01*
X83784D02*
X94217D01*
X83784Y211087D02*
Y216599D01*
X126782Y206644D02*
X137215D01*
Y212155D01*
X126782D02*
X137215D01*
X126782Y206644D02*
Y212155D01*
X113349Y199292D02*
X123782D01*
Y204803D01*
X113349D02*
X123782D01*
X113349Y199292D02*
Y204803D01*
X212819Y204014D02*
Y209526D01*
X202386Y204014D02*
X212819D01*
X202386D02*
Y209526D01*
X212819D01*
X97284Y211100D02*
X107717D01*
Y216612D01*
X97284D02*
X107717D01*
X97284Y211100D02*
Y216612D01*
X32783Y191744D02*
X43216D01*
Y197256D01*
X32783Y197256D02*
X43216Y197256D01*
X32783Y191744D02*
Y197256D01*
X19783D02*
X30217Y197256D01*
X19783Y197256D02*
X19783Y191744D01*
X30217D01*
Y197256D01*
X113470Y207098D02*
Y212610D01*
X123903D01*
Y207098D02*
Y212610D01*
X113470Y207098D02*
X123903D01*
X237768Y166642D02*
X237102Y167309D01*
X235769D01*
X235102Y166642D01*
Y163976D01*
X235769Y163310D01*
X237102D01*
X237768Y163976D01*
X241767Y167309D02*
X240434Y166642D01*
X239101Y165309D01*
Y163976D01*
X239767Y163310D01*
X241100D01*
X241767Y163976D01*
Y164643D01*
X241100Y165309D01*
X239101D01*
X179488Y219154D02*
X178904Y218571D01*
Y217404D01*
X179488Y216821D01*
X180071D01*
X180654Y217404D01*
Y218571D01*
X181237Y219154D01*
X181820D01*
X182403Y218571D01*
Y217404D01*
X181820Y216821D01*
X179488Y222653D02*
X178904Y222070D01*
Y220903D01*
X179488Y220320D01*
X181820D01*
X182403Y220903D01*
Y222070D01*
X181820Y222653D01*
X178904Y223819D02*
X182403D01*
Y226152D01*
X168627Y205573D02*
X168039Y204995D01*
X168030Y203829D01*
X168608Y203241D01*
X170940Y203221D01*
X171528Y203800D01*
X171538Y204966D01*
X170960Y205554D01*
X169794Y205564D01*
X169784Y204397D01*
X171553Y206715D02*
X168054Y206744D01*
X171572Y209048D01*
X168073Y209077D01*
X168083Y210243D02*
X171582Y210214D01*
X171596Y211963D01*
X171018Y212551D01*
X168685Y212571D01*
X168098Y211993D01*
X168083Y210243D01*
X171621Y214879D02*
X170445Y213722D01*
X169278Y213732D01*
X168122Y214908D01*
X168136Y216657D02*
X170469Y216638D01*
X171645Y217795D01*
X170488Y218971D01*
X168156Y218990D01*
X168768Y222484D02*
X168180Y221906D01*
X168170Y220739D01*
X168749Y220151D01*
X171081Y220132D01*
X171669Y220710D01*
X171679Y221877D01*
X171100Y222464D01*
X168797Y225983D02*
X168209Y225404D01*
X168199Y224238D01*
X168778Y223650D01*
X171110Y223631D01*
X171698Y224209D01*
X171708Y225375D01*
X171130Y225963D01*
X171722Y227125D02*
X170566Y228301D01*
X169399Y228310D01*
X168224Y227154D01*
X189185Y218687D02*
X188602Y218104D01*
Y216938D01*
X189185Y216355D01*
X189768D01*
X190352Y216938D01*
Y218104D01*
X190935Y218687D01*
X191518D01*
X192101Y218104D01*
Y216938D01*
X191518Y216355D01*
X188602Y219854D02*
X192101D01*
Y221603D01*
X191518Y222186D01*
X189185D01*
X188602Y221603D01*
Y219854D01*
X192101Y223352D02*
X189768D01*
X188602Y224519D01*
X189768Y225685D01*
X192101D01*
X190352D01*
Y223352D01*
X158182Y205185D02*
X160515D01*
X161681Y206351D01*
X160515Y207518D01*
X158182D01*
X158765Y211017D02*
X158182Y210433D01*
Y209267D01*
X158765Y208684D01*
X161098D01*
X161681Y209267D01*
Y210433D01*
X161098Y211017D01*
X158765Y214515D02*
X158182Y213932D01*
Y212766D01*
X158765Y212183D01*
X161098D01*
X161681Y212766D01*
Y213932D01*
X161098Y214515D01*
X161681Y216848D02*
X160515Y215682D01*
X159348D01*
X158182Y216848D01*
X158765Y220930D02*
X158182Y220347D01*
Y219180D01*
X158765Y218597D01*
X161098D01*
X161681Y219180D01*
Y220347D01*
X161098Y220930D01*
X159932D01*
Y219764D01*
X161681Y222096D02*
X158182D01*
X161681Y224429D01*
X158182D01*
Y225595D02*
X161681D01*
Y227344D01*
X161098Y227928D01*
X158765D01*
X158182Y227344D01*
Y225595D01*
X161681Y229094D02*
X160515Y230260D01*
X159348D01*
X158182Y229094D01*
X232548Y132838D02*
Y136837D01*
X234547D01*
X235214Y136171D01*
Y134838D01*
X234547Y134171D01*
X232548D01*
X233881D02*
X235214Y132838D01*
X239212D02*
X236547D01*
X239212Y135504D01*
Y136171D01*
X238546Y136837D01*
X237213D01*
X236547Y136171D01*
X240545D02*
X241212Y136837D01*
X242545D01*
X243211Y136171D01*
Y135504D01*
X242545Y134838D01*
X241878D01*
X242545D01*
X243211Y134171D01*
Y133505D01*
X242545Y132838D01*
X241212D01*
X240545Y133505D01*
X220542Y148381D02*
Y152380D01*
X222542D01*
X223208Y151714D01*
Y150381D01*
X222542Y149714D01*
X220542D01*
X221875D02*
X223208Y148381D01*
X227207D02*
X224541D01*
X227207Y151047D01*
Y151714D01*
X226540Y152380D01*
X225207D01*
X224541Y151714D01*
X230539Y148381D02*
Y152380D01*
X228540Y150381D01*
X231205D01*
X267401Y201462D02*
Y202462D01*
Y201962D01*
X270400D01*
Y201462D01*
Y202462D01*
Y203961D02*
X267401D01*
X270400Y205961D01*
X267401D01*
X270900Y207460D02*
X270400Y207960D01*
X269900D01*
Y207460D01*
X270400D01*
Y207960D01*
X270900Y207460D01*
X271400Y206960D01*
X267401Y209959D02*
Y210959D01*
Y210459D01*
X270400D01*
Y209959D01*
Y210959D01*
Y212459D02*
X267401D01*
X270400Y214458D01*
X267401D01*
Y215458D02*
X270400D01*
X268901D01*
Y217457D01*
X267401D01*
X270400D01*
X270900Y218956D02*
X270400Y219456D01*
X269900D01*
Y218956D01*
X270400D01*
Y219456D01*
X270900Y218956D01*
X271400Y218457D01*
X267901Y223455D02*
X267401Y222955D01*
Y221956D01*
X267901Y221456D01*
X269900D01*
X270400Y221956D01*
Y222955D01*
X269900Y223455D01*
X268901D01*
Y222455D01*
X270400Y224455D02*
X267401D01*
X270400Y226454D01*
X267401D01*
Y227454D02*
X270400D01*
Y228953D01*
X269900Y229453D01*
X267901D01*
X267401Y228953D01*
Y227454D01*
X105790Y234251D02*
Y237749D01*
X107539D01*
X108123Y237166D01*
Y236000D01*
X107539Y235417D01*
X105790D01*
X106956D02*
X108123Y234251D01*
X111621D02*
X109289D01*
X111621Y236583D01*
Y237166D01*
X111038Y237749D01*
X109872D01*
X109289Y237166D01*
X112788Y234251D02*
X113954D01*
X113371D01*
Y237749D01*
X112788Y237166D01*
X126785Y234251D02*
Y237749D01*
X128535D01*
X129118Y237166D01*
Y236000D01*
X128535Y235417D01*
X126785D01*
X127952D02*
X129118Y234251D01*
X132617D02*
X130284D01*
X132617Y236583D01*
Y237166D01*
X132034Y237749D01*
X130867D01*
X130284Y237166D01*
X133783D02*
X134366Y237749D01*
X135532D01*
X136116Y237166D01*
Y234834D01*
X135532Y234251D01*
X134366D01*
X133783Y234834D01*
Y237166D01*
X203485Y237573D02*
Y241072D01*
X205234D01*
X205817Y240489D01*
Y239323D01*
X205234Y238740D01*
X203485D01*
X204651D02*
X205817Y237573D01*
X206984D02*
X208150D01*
X207567D01*
Y241072D01*
X206984Y240489D01*
X209899Y238156D02*
X210483Y237573D01*
X211649D01*
X212232Y238156D01*
Y240489D01*
X211649Y241072D01*
X210483D01*
X209899Y240489D01*
Y239906D01*
X210483Y239323D01*
X212232D01*
X218790Y237484D02*
Y240983D01*
X220539D01*
X221122Y240400D01*
Y239234D01*
X220539Y238650D01*
X218790D01*
X219956D02*
X221122Y237484D01*
X222289D02*
X223455D01*
X222872D01*
Y240983D01*
X222289Y240400D01*
X225204D02*
X225787Y240983D01*
X226954D01*
X227537Y240400D01*
Y239817D01*
X226954Y239234D01*
X227537Y238650D01*
Y238067D01*
X226954Y237484D01*
X225787D01*
X225204Y238067D01*
Y238650D01*
X225787Y239234D01*
X225204Y239817D01*
Y240400D01*
X225787Y239234D02*
X226954D01*
X83716Y70500D02*
X83216Y70999D01*
X82216D01*
X81716Y70500D01*
Y68500D01*
X82216Y68001D01*
X83216D01*
X83716Y68500D01*
X86715Y70999D02*
X84715D01*
Y69500D01*
X85715Y70000D01*
X86215D01*
X86715Y69500D01*
Y68500D01*
X86215Y68001D01*
X85215D01*
X84715Y68500D01*
X205673Y73972D02*
X205007Y74639D01*
X203674D01*
X203007Y73972D01*
Y71307D01*
X203674Y70640D01*
X205007D01*
X205673Y71307D01*
X207006Y70640D02*
X208339D01*
X207672D01*
Y74639D01*
X207006Y73972D01*
X213004Y74639D02*
X210338D01*
Y72639D01*
X211671Y73306D01*
X212337D01*
X213004Y72639D01*
Y71307D01*
X212337Y70640D01*
X211005D01*
X210338Y71307D01*
X206070Y85276D02*
X205404Y85942D01*
X204071D01*
X203404Y85276D01*
Y82610D01*
X204071Y81944D01*
X205404D01*
X206070Y82610D01*
X207403Y81944D02*
X208736D01*
X208069D01*
Y85942D01*
X207403Y85276D01*
X213401Y85942D02*
X212068Y85276D01*
X210735Y83943D01*
Y82610D01*
X211402Y81944D01*
X212735D01*
X213401Y82610D01*
Y83276D01*
X212735Y83943D01*
X210735D01*
X53652Y123702D02*
X55985D01*
X54818D01*
Y120203D01*
X57151Y119620D02*
X59484D01*
X60650Y120203D02*
Y123702D01*
X62399D01*
X62983Y123119D01*
Y121953D01*
X62399Y121370D01*
X60650D01*
X65898Y123702D02*
X64732D01*
X64149Y123119D01*
Y120786D01*
X64732Y120203D01*
X65898D01*
X66481Y120786D01*
Y123119D01*
X65898Y123702D01*
X67648D02*
X69980D01*
X68814D01*
Y120203D01*
X7234Y128557D02*
X4902D01*
Y126808D01*
X6068Y127391D01*
X6651D01*
X7234Y126808D01*
Y125641D01*
X6651Y125058D01*
X5485D01*
X4902Y125641D01*
X8401Y128557D02*
Y126225D01*
X9567Y125058D01*
X10733Y126225D01*
Y128557D01*
X257226Y200771D02*
X257809Y201355D01*
Y202521D01*
X257226Y203104D01*
X254893D01*
X254310Y202521D01*
Y201355D01*
X254893Y200771D01*
X254310Y199605D02*
Y198439D01*
Y199022D01*
X257809D01*
X257226Y199605D01*
X67500Y211868D02*
Y214200D01*
X66917Y214783D01*
X65751D01*
X65167Y214200D01*
Y211868D01*
X65751Y211284D01*
X66917D01*
X66334Y212451D02*
X67500Y211284D01*
X66917D02*
X67500Y211868D01*
X68666Y211284D02*
X69833D01*
X69249D01*
Y214783D01*
X68666Y214200D01*
X76878Y122695D02*
Y119196D01*
X78628D01*
X79211Y119780D01*
Y120363D01*
X78628Y120946D01*
X76878D01*
X78628D01*
X79211Y121529D01*
Y122112D01*
X78628Y122695D01*
X76878D01*
X80377D02*
Y119780D01*
X80960Y119196D01*
X82127D01*
X82710Y119780D01*
Y122695D01*
X83876D02*
X86209D01*
Y122112D01*
X83876Y119780D01*
Y119196D01*
X86209D01*
X239183Y95551D02*
Y99049D01*
X240933D01*
X241516Y98466D01*
Y97300D01*
X240933Y96717D01*
X239183D01*
X240350D02*
X241516Y95551D01*
X242682D02*
X243849D01*
X243266D01*
Y99049D01*
X242682Y98466D01*
X247347Y95551D02*
Y99049D01*
X245598Y97300D01*
X247931D01*
X239165Y82912D02*
Y86410D01*
X240915D01*
X241498Y85827D01*
Y84661D01*
X240915Y84078D01*
X239165D01*
X240332D02*
X241498Y82912D01*
X242664D02*
X243830D01*
X243247D01*
Y86410D01*
X242664Y85827D01*
X245580D02*
X246163Y86410D01*
X247329D01*
X247912Y85827D01*
Y85244D01*
X247329Y84661D01*
X246746D01*
X247329D01*
X247912Y84078D01*
Y83495D01*
X247329Y82912D01*
X246163D01*
X245580Y83495D01*
X206019Y202114D02*
X205436Y202697D01*
X204270D01*
X203686Y202114D01*
Y199781D01*
X204270Y199198D01*
X205436D01*
X206019Y199781D01*
X207185Y202697D02*
X209518D01*
Y202114D01*
X207185Y199781D01*
Y199198D01*
X51542Y103166D02*
X50959Y103749D01*
X49793D01*
X49210Y103166D01*
Y100834D01*
X49793Y100251D01*
X50959D01*
X51542Y100834D01*
X52708Y100251D02*
X53875D01*
X53292D01*
Y103749D01*
X52708Y103166D01*
X55624Y100251D02*
X56790D01*
X56207D01*
Y103749D01*
X55624Y103166D01*
X249570Y135730D02*
X253068D01*
Y137480D01*
X252485Y138063D01*
X250153D01*
X249570Y137480D01*
Y135730D01*
Y139229D02*
Y141562D01*
X250153D01*
X252485Y139229D01*
X253068D01*
Y141562D01*
X250153Y142728D02*
X249570Y143311D01*
Y144477D01*
X250153Y145061D01*
X250736D01*
X251319Y144477D01*
Y143894D01*
Y144477D01*
X251902Y145061D01*
X252485D01*
X253068Y144477D01*
Y143311D01*
X252485Y142728D01*
X93072Y44222D02*
Y41306D01*
X93655Y40723D01*
X94821D01*
X95404Y41306D01*
Y44222D01*
X96570Y43639D02*
X97154Y44222D01*
X98320D01*
X98903Y43639D01*
Y43056D01*
X98320Y42473D01*
X97737D01*
X98320D01*
X98903Y41890D01*
Y41306D01*
X98320Y40723D01*
X97154D01*
X96570Y41306D01*
X62919Y45310D02*
X62335Y45893D01*
X61169D01*
X60586Y45310D01*
Y42977D01*
X61169Y42394D01*
X62335D01*
X62919Y42977D01*
X64085D02*
X64668Y42394D01*
X65834D01*
X66417Y42977D01*
Y45310D01*
X65834Y45893D01*
X64668D01*
X64085Y45310D01*
Y44727D01*
X64668Y44144D01*
X66417D01*
X35258Y204135D02*
Y207634D01*
X37007D01*
X37591Y207051D01*
Y205884D01*
X37007Y205301D01*
X35258D01*
X36424D02*
X37591Y204135D01*
X38757Y204718D02*
X39340Y204135D01*
X40506D01*
X41089Y204718D01*
Y207051D01*
X40506Y207634D01*
X39340D01*
X38757Y207051D01*
Y206467D01*
X39340Y205884D01*
X41089D01*
X20626Y204255D02*
Y207754D01*
X22376D01*
X22959Y207171D01*
Y206005D01*
X22376Y205422D01*
X20626D01*
X21793D02*
X22959Y204255D01*
X24125D02*
X25292D01*
X24708D01*
Y207754D01*
X24125Y207171D01*
X27041D02*
X27624Y207754D01*
X28790D01*
X29374Y207171D01*
Y204838D01*
X28790Y204255D01*
X27624D01*
X27041Y204838D01*
Y207171D01*
X127930Y194217D02*
Y197716D01*
X129680D01*
X130263Y197133D01*
Y195967D01*
X129680Y195384D01*
X127930D01*
X129097D02*
X130263Y194217D01*
X131429D02*
X132596D01*
X132012D01*
Y197716D01*
X131429Y197133D01*
X136678Y197716D02*
X135511Y197133D01*
X134345Y195967D01*
Y194800D01*
X134928Y194217D01*
X136094D01*
X136678Y194800D01*
Y195384D01*
X136094Y195967D01*
X134345D01*
X129083Y213940D02*
Y217439D01*
X130832D01*
X131415Y216856D01*
Y215690D01*
X130832Y215107D01*
X129083D01*
X130249D02*
X131415Y213940D01*
X134914Y217439D02*
X132582D01*
Y215690D01*
X133748Y216273D01*
X134331D01*
X134914Y215690D01*
Y214523D01*
X134331Y213940D01*
X133165D01*
X132582Y214523D01*
X115641Y213801D02*
Y217299D01*
X117390D01*
X117973Y216716D01*
Y215550D01*
X117390Y214967D01*
X115641D01*
X116807D02*
X117973Y213801D01*
X120889D02*
Y217299D01*
X119140Y215550D01*
X121472D01*
X116136Y194465D02*
Y197964D01*
X117885D01*
X118469Y197381D01*
Y196215D01*
X117885Y195632D01*
X116136D01*
X117302D02*
X118469Y194465D01*
X119635D02*
X120801D01*
X120218D01*
Y197964D01*
X119635Y197381D01*
X263084Y157652D02*
Y161151D01*
X264834D01*
X265417Y160567D01*
Y159401D01*
X264834Y158818D01*
X263084D01*
X264251D02*
X265417Y157652D01*
X266583D02*
X267749D01*
X267166D01*
Y161151D01*
X266583Y160567D01*
X271831Y161151D02*
X269499D01*
Y159401D01*
X270665Y159984D01*
X271248D01*
X271831Y159401D01*
Y158235D01*
X271248Y157652D01*
X270082D01*
X269499Y158235D01*
X67101Y186459D02*
Y189958D01*
X68851D01*
X69434Y189374D01*
Y188208D01*
X68851Y187625D01*
X67101D01*
X68268D02*
X69434Y186459D01*
X70600Y189374D02*
X71183Y189958D01*
X72350D01*
X72933Y189374D01*
Y188791D01*
X72350Y188208D01*
X72933Y187625D01*
Y187042D01*
X72350Y186459D01*
X71183D01*
X70600Y187042D01*
Y187625D01*
X71183Y188208D01*
X70600Y188791D01*
Y189374D01*
X71183Y188208D02*
X72350D01*
X223584Y212671D02*
Y216170D01*
X225334D01*
X225917Y215586D01*
Y214420D01*
X225334Y213837D01*
X223584D01*
X224751D02*
X225917Y212671D01*
X227083Y216170D02*
X229416D01*
Y215586D01*
X227083Y213254D01*
Y212671D01*
X232657Y213016D02*
Y216515D01*
X234406D01*
X234989Y215932D01*
Y214765D01*
X234406Y214182D01*
X232657D01*
X233823D02*
X234989Y213016D01*
X238488Y216515D02*
X237322Y215932D01*
X236155Y214765D01*
Y213599D01*
X236739Y213016D01*
X237905D01*
X238488Y213599D01*
Y214182D01*
X237905Y214765D01*
X236155D01*
X257683Y82334D02*
Y84666D01*
X257100Y85249D01*
X255933D01*
X255350Y84666D01*
Y82334D01*
X255933Y81751D01*
X257100D01*
X256517Y82917D02*
X257683Y81751D01*
X257100D02*
X257683Y82334D01*
X261182Y81751D02*
X258849D01*
X261182Y84083D01*
Y84666D01*
X260598Y85249D01*
X259432D01*
X258849Y84666D01*
X50328Y214220D02*
X49745Y214803D01*
X48579D01*
X47996Y214220D01*
Y211887D01*
X48579Y211304D01*
X49745D01*
X50328Y211887D01*
X51495Y211304D02*
X52661D01*
X52078D01*
Y214803D01*
X51495Y214220D01*
X54410D02*
X54993Y214803D01*
X56160D01*
X56743Y214220D01*
Y211887D01*
X56160Y211304D01*
X54993D01*
X54410Y211887D01*
Y214220D01*
X59127Y139501D02*
Y137169D01*
X62626D01*
Y139501D01*
X60877Y137169D02*
Y138335D01*
X62626Y140667D02*
X59127D01*
X62626Y143000D01*
X59127D01*
X59711Y146499D02*
X59127Y145916D01*
Y144749D01*
X59711Y144166D01*
X62043D01*
X62626Y144749D01*
Y145916D01*
X62043Y146499D01*
X62626Y147665D02*
Y148831D01*
Y148248D01*
X59127D01*
X59711Y147665D01*
X57053Y185576D02*
X53554D01*
Y187325D01*
X54137Y187908D01*
X55304D01*
X55887Y187325D01*
Y185576D01*
Y186742D02*
X57053Y187908D01*
Y189075D02*
Y190241D01*
Y189658D01*
X53554D01*
X54137Y189075D01*
X57053Y191990D02*
Y193157D01*
Y192574D01*
X53554D01*
X54137Y191990D01*
X136084Y98980D02*
Y102479D01*
X137834D01*
X138417Y101895D01*
Y100729D01*
X137834Y100146D01*
X136084D01*
X137251D02*
X138417Y98980D01*
X139583Y101895D02*
X140166Y102479D01*
X141333D01*
X141916Y101895D01*
Y101312D01*
X141333Y100729D01*
X140749D01*
X141333D01*
X141916Y100146D01*
Y99563D01*
X141333Y98980D01*
X140166D01*
X139583Y99563D01*
X1641Y188512D02*
Y192011D01*
X3391D01*
X3974Y191428D01*
Y190261D01*
X3391Y189678D01*
X1641D01*
X2808D02*
X3974Y188512D01*
X5140D02*
X6307D01*
X5723D01*
Y192011D01*
X5140Y191428D01*
X10389Y188512D02*
X8056D01*
X10389Y190845D01*
Y191428D01*
X9805Y192011D01*
X8639D01*
X8056Y191428D01*
X149129Y98595D02*
Y102094D01*
X150879D01*
X151462Y101511D01*
Y100345D01*
X150879Y99761D01*
X149129D01*
X150295D02*
X151462Y98595D01*
X154961D02*
X152628D01*
X154961Y100928D01*
Y101511D01*
X154377Y102094D01*
X153211D01*
X152628Y101511D01*
X46759Y199410D02*
X46176Y199994D01*
X45009D01*
X44426Y199410D01*
Y197078D01*
X45009Y196495D01*
X46176D01*
X46759Y197078D01*
X47925Y196495D02*
X49091D01*
X48508D01*
Y199994D01*
X47925Y199410D01*
X50841D02*
X51424Y199994D01*
X52590D01*
X53173Y199410D01*
Y198827D01*
X52590Y198244D01*
X52007D01*
X52590D01*
X53173Y197661D01*
Y197078D01*
X52590Y196495D01*
X51424D01*
X50841Y197078D01*
X223320Y47394D02*
X222736Y46811D01*
Y45644D01*
X223320Y45061D01*
X225652D01*
X226235Y45644D01*
Y46811D01*
X225652Y47394D01*
X223320Y48560D02*
X222736Y49143D01*
Y50310D01*
X223320Y50893D01*
X223903D01*
X224486Y50310D01*
X225069Y50893D01*
X225652D01*
X226235Y50310D01*
Y49143D01*
X225652Y48560D01*
X225069D01*
X224486Y49143D01*
X223903Y48560D01*
X223320D01*
X224486Y49143D02*
Y50310D01*
X237530Y57867D02*
X236947Y58450D01*
X235781D01*
X235198Y57867D01*
Y55535D01*
X235781Y54952D01*
X236947D01*
X237530Y55535D01*
X238697Y57867D02*
X239280Y58450D01*
X240446D01*
X241029Y57867D01*
Y57284D01*
X240446Y56701D01*
X239863D01*
X240446D01*
X241029Y56118D01*
Y55535D01*
X240446Y54952D01*
X239280D01*
X238697Y55535D01*
X57898Y77000D02*
X57398Y77500D01*
X56398D01*
X55898Y77000D01*
Y75000D01*
X56398Y74501D01*
X57398D01*
X57898Y75000D01*
X58898Y74501D02*
X59897D01*
X59397D01*
Y77500D01*
X58898Y77000D01*
X63396Y74501D02*
X61397D01*
X63396Y76500D01*
Y77000D01*
X62896Y77500D01*
X61897D01*
X61397Y77000D01*
X11959Y199666D02*
X11376Y200249D01*
X10210D01*
X9626Y199666D01*
Y197334D01*
X10210Y196751D01*
X11376D01*
X11959Y197334D01*
X13125Y196751D02*
X14292D01*
X13708D01*
Y200249D01*
X13125Y199666D01*
X17790Y196751D02*
Y200249D01*
X16041Y198500D01*
X18374D01*
X183133Y71604D02*
Y68271D01*
X183800Y67605D01*
X185132D01*
X185799Y68271D01*
Y71604D01*
X189798Y67605D02*
X187132D01*
X189798Y70271D01*
Y70937D01*
X189131Y71604D01*
X187798D01*
X187132Y70937D01*
D12*
X93432Y53423D02*
X92932Y54289D01*
X91932D01*
X91432Y53423D01*
X91932Y52557D01*
X92932D01*
X93432Y53423D01*
X273133Y100860D02*
X273082Y101852D01*
X272932Y102834D01*
X272683Y103795D01*
X272338Y104727D01*
X271901Y105618D01*
X271375Y106461D01*
X270767Y107247D01*
X270083Y107967D01*
X269329Y108614D01*
X268514Y109181D01*
X267646Y109663D01*
X266733Y110055D01*
X265785Y110352D01*
X264812Y110552D01*
X263824Y110652D01*
X262831D01*
X261843Y110552D01*
X260870Y110352D01*
X259922Y110055D01*
X259010Y109663D01*
X258141Y109181D01*
X257326Y108614D01*
X256572Y107967D01*
X255888Y107247D01*
X255280Y106461D01*
X254755Y105618D01*
X254317Y104727D01*
X253972Y103795D01*
X253723Y102834D01*
X253573Y101852D01*
X253523Y100860D01*
X253573Y99868D01*
X253723Y98886D01*
X253972Y97925D01*
X254317Y96993D01*
X254755Y96102D01*
X255280Y95259D01*
X255888Y94473D01*
X256572Y93753D01*
X257326Y93106D01*
X258141Y92539D01*
X259010Y92057D01*
X259922Y91665D01*
X260870Y91368D01*
X261843Y91168D01*
X262831Y91067D01*
X263824Y91068D01*
X264812Y91168D01*
X265785Y91368D01*
X266733Y91665D01*
X267646Y92057D01*
X268514Y92539D01*
X269329Y93106D01*
X270083Y93753D01*
X270767Y94473D01*
X271375Y95259D01*
X271901Y96102D01*
X272338Y96993D01*
X272683Y97925D01*
X272932Y98886D01*
X273082Y99868D01*
X273133Y100860D01*
X21305Y58823D02*
X21255Y59815D01*
X21104Y60797D01*
X20855Y61758D01*
X20510Y62690D01*
X20073Y63581D01*
X19548Y64424D01*
X18940Y65210D01*
X18255Y65929D01*
X17502Y66576D01*
X16687Y67144D01*
X15818Y67626D01*
X14905Y68018D01*
X13958Y68315D01*
X12985Y68515D01*
X11997Y68615D01*
X11003D01*
X10015Y68515D01*
X9042Y68315D01*
X8095Y68018D01*
X7182Y67626D01*
X6313Y67144D01*
X5498Y66576D01*
X4745Y65929D01*
X4060Y65210D01*
X3452Y64424D01*
X2927Y63581D01*
X2490Y62690D01*
X2145Y61758D01*
X1896Y60797D01*
X1745Y59815D01*
X1695Y58823D01*
X1745Y57831D01*
X1896Y56849D01*
X2145Y55888D01*
X2490Y54956D01*
X2927Y54064D01*
X3452Y53221D01*
X4060Y52436D01*
X4745Y51716D01*
X5498Y51069D01*
X6313Y50502D01*
X7182Y50020D01*
X8095Y49628D01*
X9042Y49331D01*
X10015Y49131D01*
X11003Y49030D01*
X11997Y49030D01*
X12985Y49131D01*
X13958Y49331D01*
X14905Y49628D01*
X15818Y50020D01*
X16687Y50502D01*
X17502Y51069D01*
X18255Y51716D01*
X18940Y52436D01*
X19548Y53222D01*
X20073Y54064D01*
X20510Y54956D01*
X20855Y55888D01*
X21104Y56849D01*
X21255Y57831D01*
X21305Y58823D01*
X21257Y221056D02*
X21206Y222047D01*
X21056Y223029D01*
X20807Y223991D01*
X20462Y224922D01*
X20025Y225814D01*
X19499Y226657D01*
X18891Y227442D01*
X18207Y228162D01*
X17453Y228809D01*
X16638Y229377D01*
X15770Y229858D01*
X14857Y230250D01*
X13909Y230547D01*
X12936Y230747D01*
X11948Y230848D01*
X10955D01*
X9967Y230747D01*
X8994Y230547D01*
X8046Y230250D01*
X7134Y229858D01*
X6265Y229377D01*
X5450Y228809D01*
X4696Y228162D01*
X4012Y227442D01*
X3404Y226657D01*
X2879Y225814D01*
X2441Y224922D01*
X2096Y223991D01*
X1847Y223029D01*
X1697Y222047D01*
X1647Y221056D01*
X1697Y220063D01*
X1847Y219082D01*
X2096Y218120D01*
X2441Y217189D01*
X2879Y216297D01*
X3404Y215454D01*
X4012Y214669D01*
X4696Y213949D01*
X5450Y213302D01*
X6265Y212735D01*
X7134Y212252D01*
X8046Y211861D01*
X8994Y211563D01*
X9967Y211364D01*
X10955Y211263D01*
X11948Y211263D01*
X12936Y211364D01*
X13909Y211563D01*
X14857Y211861D01*
X15770Y212252D01*
X16638Y212735D01*
X17453Y213302D01*
X18207Y213949D01*
X18891Y214669D01*
X19499Y215454D01*
X20025Y216297D01*
X20462Y217189D01*
X20807Y218120D01*
X21056Y219082D01*
X21206Y220064D01*
X21257Y221056D01*
X125219Y82052D02*
X121554D01*
Y76554D01*
X125219D01*
X121554Y79303D02*
X123386D01*
X130717Y81135D02*
X129801Y82052D01*
X127968D01*
X127052Y81135D01*
Y80219D01*
X127968Y79303D01*
X129801D01*
X130717Y78386D01*
Y77470D01*
X129801Y76554D01*
X127968D01*
X127052Y77470D01*
X132550Y76554D02*
Y82052D01*
X135299D01*
X136216Y81135D01*
Y79303D01*
X135299Y78386D01*
X132550D01*
X141714Y82052D02*
X138048D01*
Y76554D01*
X141714D01*
X138048Y79303D02*
X139881D01*
X147212Y82052D02*
X143547D01*
Y76554D01*
X147212D01*
X143547Y79303D02*
X145379D01*
X149045Y82052D02*
Y76554D01*
X151794D01*
X152710Y77470D01*
Y81135D01*
X151794Y82052D01*
X149045D01*
X154543Y81135D02*
X155459Y82052D01*
X157292D01*
X158209Y81135D01*
Y80219D01*
X157292Y79303D01*
X156376D01*
X157292D01*
X158209Y78386D01*
Y77470D01*
X157292Y76554D01*
X155459D01*
X154543Y77470D01*
X163707Y76554D02*
X160041D01*
X163707Y80219D01*
Y81135D01*
X162790Y82052D01*
X160958D01*
X160041Y81135D01*
X165540Y75637D02*
X169205D01*
X171038Y82052D02*
Y78386D01*
X172870Y76554D01*
X174703Y78386D01*
Y82052D01*
X176536Y81135D02*
X177452Y82052D01*
X179285D01*
X180201Y81135D01*
Y80219D01*
X179285Y79303D01*
X178369D01*
X179285D01*
X180201Y78386D01*
Y77470D01*
X179285Y76554D01*
X177452D01*
X176536Y77470D01*
X182034Y76554D02*
Y77470D01*
X182950D01*
Y76554D01*
X182034D01*
X186616Y81135D02*
X187532Y82052D01*
X189365D01*
X190281Y81135D01*
Y77470D01*
X189365Y76554D01*
X187532D01*
X186616Y77470D01*
Y81135D01*
X92488Y165174D02*
Y163175D01*
X93488Y162175D01*
X97487D01*
X98486Y163175D01*
Y165174D01*
X97487Y166174D01*
X93488D01*
X92488Y165174D01*
Y168173D02*
X98486D01*
Y172172D01*
X92488Y178170D02*
Y174171D01*
X98486D01*
Y178170D01*
X95487Y174171D02*
Y176170D01*
X92488Y180169D02*
X98486D01*
Y183168D01*
X97487Y184168D01*
X93488D01*
X92488Y183168D01*
Y180169D01*
X98486Y186167D02*
Y188166D01*
Y187167D01*
X92488D01*
X93488Y186167D01*
X257193Y122106D02*
X256526Y121439D01*
Y120106D01*
X257193Y119440D01*
X257859D01*
X258526Y120106D01*
Y121439D01*
X259192Y122106D01*
X259858D01*
X260525Y121439D01*
Y120106D01*
X259858Y119440D01*
X260525Y123439D02*
X256526D01*
Y125438D01*
X257193Y126104D01*
X258526D01*
X259192Y125438D01*
Y123439D01*
X260525Y127437D02*
X257859D01*
X256526Y128770D01*
X257859Y130103D01*
X260525D01*
X258526D01*
Y127437D01*
X260525Y131436D02*
X256526D01*
Y133435D01*
X257193Y134102D01*
X258526D01*
X259192Y133435D01*
Y131436D01*
Y132769D02*
X260525Y134102D01*
X256526Y138101D02*
Y135435D01*
X260525D01*
Y138101D01*
X258526Y135435D02*
Y136768D01*
X260758Y206173D02*
Y203840D01*
X264257D01*
Y206173D01*
X262508Y203840D02*
Y205006D01*
X260758Y207339D02*
X264257Y209671D01*
X260758D02*
X264257Y207339D01*
X260758Y210838D02*
Y213170D01*
Y212004D01*
X264257D01*
X264840Y214337D02*
Y216669D01*
X264257Y217835D02*
X260758D01*
X261925Y219002D01*
X260758Y220168D01*
X264257D01*
X260758Y223084D02*
Y221918D01*
X261341Y221334D01*
X263674D01*
X264257Y221918D01*
Y223084D01*
X263674Y223667D01*
X261341D01*
X260758Y223084D01*
Y224833D02*
Y227166D01*
Y225999D01*
X264257D01*
X222465Y13195D02*
X221632Y12362D01*
Y10696D01*
X222465Y9863D01*
X225797D01*
X226630Y10696D01*
Y12362D01*
X225797Y13195D01*
X224131D01*
Y11529D01*
X226630Y14861D02*
X221632D01*
X226630Y18194D01*
X221632D01*
Y19860D02*
X226630D01*
Y22359D01*
X225797Y23192D01*
X222465D01*
X221632Y22359D01*
Y19860D01*
D13*
X97158Y36099D02*
X97847Y36827D01*
X98495Y37592D01*
X99099Y38392D01*
X99658Y39224D01*
X100170Y40086D01*
X100633Y40976D01*
X101045Y41890D01*
X101406Y42825D01*
X101715Y43779D01*
X101970Y44748D01*
X102170Y45730D01*
X102316Y46722D01*
X102406Y47721D01*
X102440Y48723D01*
X102419Y49725D01*
X102341Y50725D01*
X102209Y51718D01*
X102021Y52703D01*
X101778Y53676D01*
X101482Y54633D01*
X101133Y55573D01*
X100732Y56492D01*
X100281Y57387D01*
X99780Y58256D01*
X99232Y59095D01*
X98638Y59903D01*
X98000Y60676D01*
X97320Y61413D01*
X96600Y62110D01*
X95842Y62767D01*
X95049Y63380D01*
X94223Y63948D01*
X93366Y64469D01*
X92482Y64942D01*
X91573Y65364D01*
X90642Y65736D01*
X89692Y66055D01*
X88725Y66321D01*
X87745Y66532D01*
X86755Y66689D01*
X85757Y66790D01*
X84756Y66835D01*
X83753Y66825D01*
X82753Y66759D01*
X81758Y66637D01*
X80771Y66460D01*
X79796Y66228D01*
X78835Y65943D01*
X77891Y65604D01*
X76968Y65214D01*
X76068Y64772D01*
X75194Y64281D01*
X74348Y63743D01*
X73534Y63157D01*
X72754Y62528D01*
X72010Y61856D01*
X71304Y61144D01*
X70639Y60394D01*
X70018Y59607D01*
X69440Y58788D01*
X68910Y57937D01*
X68427Y57058D01*
X67994Y56154D01*
X67613Y55227D01*
X67283Y54280D01*
X67007Y53316D01*
X66784Y52339D01*
X66617Y51350D01*
X66505Y50354D01*
X66448Y49353D01*
X66447Y48351D01*
X66502Y47350D01*
X66613Y46354D01*
X66779Y45365D01*
X67000Y44387D01*
X67274Y43423D01*
X67602Y42476D01*
X67983Y41548D01*
X68414Y40643D01*
X67680Y42489D02*
X68008Y41687D01*
X68375Y40902D01*
X68778Y40135D01*
X213826Y137154D02*
Y141153D01*
X215826D01*
X216492Y140487D01*
Y139154D01*
X215826Y138487D01*
X213826D01*
X215159D02*
X216492Y137154D01*
X220491D02*
X217825D01*
X220491Y139820D01*
Y140487D01*
X219824Y141153D01*
X218491D01*
X217825Y140487D01*
X224489Y137154D02*
X221824D01*
X224489Y139820D01*
Y140487D01*
X223823Y141153D01*
X222490D01*
X221824Y140487D01*
X24565Y230330D02*
Y226331D01*
X26565D01*
X27231Y226998D01*
Y229664D01*
X26565Y230330D01*
X24565D01*
X31230Y226331D02*
X28564D01*
X31230Y228997D01*
Y229664D01*
X30564Y230330D01*
X29231D01*
X28564Y229664D01*
X87598Y208557D02*
X86931Y209223D01*
X85598D01*
X84932Y208557D01*
Y205891D01*
X85598Y205225D01*
X86931D01*
X87598Y205891D01*
X90930Y205225D02*
Y209223D01*
X88931Y207224D01*
X91597D01*
X99401Y208642D02*
X98735Y209309D01*
X97402D01*
X96736Y208642D01*
Y205976D01*
X97402Y205310D01*
X98735D01*
X99401Y205976D01*
X103400Y205310D02*
X100734D01*
X103400Y207976D01*
Y208642D01*
X102734Y209309D01*
X101401D01*
X100734Y208642D01*
X25101Y59116D02*
X24351Y58366D01*
Y56867D01*
X25101Y56117D01*
X25851D01*
X26601Y56867D01*
Y58366D01*
X27351Y59116D01*
X28100D01*
X28850Y58366D01*
Y56867D01*
X28100Y56117D01*
X28850Y60615D02*
Y62115D01*
Y61365D01*
X24351D01*
X25101Y60615D01*
X24000Y105776D02*
X23334Y106443D01*
X22001D01*
X21334Y105776D01*
Y103110D01*
X22001Y102444D01*
X23334D01*
X24000Y103110D01*
Y104443D01*
X22667D01*
X25333Y102444D02*
X26666D01*
X25999D01*
Y106443D01*
X25333Y105776D01*
D14*
X17969Y116000D02*
X17909Y116997D01*
X17729Y117979D01*
X17432Y118932D01*
X17022Y119842D01*
X16506Y120697D01*
X15890Y121483D01*
X15184Y122188D01*
X14398Y122804D01*
X13544Y123321D01*
X12634Y123730D01*
X11680Y124028D01*
X10698Y124207D01*
X9702Y124268D01*
X8705Y124207D01*
X7723Y124028D01*
X6770Y123730D01*
X5860Y123321D01*
X5005Y122804D01*
X4219Y122188D01*
X3513Y121483D01*
X2898Y120697D01*
X2381Y119842D01*
X1971Y118932D01*
X1674Y117979D01*
X1494Y116997D01*
X1434Y116000D01*
X1494Y115003D01*
X1674Y114021D01*
X1971Y113068D01*
X2381Y112158D01*
X2898Y111303D01*
X3513Y110518D01*
X4219Y109811D01*
X5005Y109196D01*
X5860Y108679D01*
X6770Y108270D01*
X7723Y107973D01*
X8705Y107793D01*
X9702Y107732D01*
X10698Y107793D01*
X11680Y107973D01*
X12634Y108270D01*
X13544Y108679D01*
X14398Y109196D01*
X15184Y109811D01*
X15890Y110518D01*
X16506Y111303D01*
X17022Y112158D01*
X17432Y113068D01*
X17729Y114021D01*
X17909Y115003D01*
X17969Y116000D01*
D15*
X78988Y46552D02*
X90012D01*
X78988D02*
Y51276D01*
X90012Y46552D02*
Y51276D01*
X78988D02*
X90012D01*
X262542Y149861D02*
X265298Y152617D01*
X262542Y150649D02*
X264511Y152617D01*
X262542Y151436D02*
X263723Y152617D01*
X262542Y111672D02*
Y152617D01*
Y111672D02*
X273566D01*
Y152617D01*
X262542D02*
X273566D01*
X218902Y79135D02*
X225201D01*
X218902Y88977D02*
X225201D01*
X218915Y68005D02*
X225215D01*
X218915Y77847D02*
X225215D01*
X259150Y165140D02*
X272850D01*
Y199077D01*
X259150D02*
X272850D01*
X259150Y165140D02*
Y199077D01*
X259303Y165805D02*
X259799Y165309D01*
X259303Y168805D02*
X262799Y165309D01*
X259303Y167805D02*
X261799Y165309D01*
X259303Y166805D02*
X260799Y165309D01*
X5630Y133244D02*
X18622D01*
X5630D02*
Y151354D01*
Y180882D02*
X5630Y162772D01*
X5630Y180882D02*
X57599D01*
X57598Y162772D02*
X57599Y180882D01*
Y133244D02*
Y151354D01*
X46181Y133244D02*
X57599D01*
X203100Y7976D02*
Y30024D01*
X219636D01*
Y7976D02*
Y30024D01*
X203100Y7976D02*
X219636D01*
X228005Y7476D02*
X244540D01*
Y29524D01*
X228005D02*
X244540D01*
X228005Y7476D02*
Y29524D01*
X175372Y7449D02*
Y29496D01*
X191908D01*
Y7449D02*
Y29496D01*
X175372Y7449D02*
X191908D01*
X252232Y7476D02*
Y29524D01*
X268768D01*
Y7476D02*
Y29524D01*
X252232Y7476D02*
X268768D01*
X158401D02*
X174936D01*
Y29524D01*
X158401D02*
X174936D01*
X158401Y7476D02*
Y29524D01*
X52577Y123840D02*
X52577Y110140D01*
X18640Y123840D02*
X52577D01*
X18640D02*
X18640Y110140D01*
X52577D01*
X51912Y110293D02*
X52408Y110789D01*
X48912Y110293D02*
X52408Y113789D01*
X49912Y110293D02*
X52408Y112789D01*
X50912Y110293D02*
X52408Y111789D01*
X42724Y214912D02*
Y231447D01*
X33276D02*
X42724D01*
X33276Y214912D02*
X42724D01*
X33276D02*
Y231447D01*
X2595Y74532D02*
X47870Y74532D01*
X2595Y74532D02*
Y100516D01*
X47870D01*
Y74532D02*
Y100516D01*
X22772Y46920D02*
Y72116D01*
X62929D01*
X22772Y46920D02*
X62929D01*
Y72116D01*
X181897Y35142D02*
Y66638D01*
X220480D01*
Y35142D02*
Y66638D01*
X181897Y35142D02*
X220480D01*
X243165Y42338D02*
Y48637D01*
X233322Y42338D02*
Y48637D01*
X245526Y79911D02*
X271510D01*
X245526Y34635D02*
Y79911D01*
Y34635D02*
X271510D01*
Y79911D01*
X61063Y203213D02*
X68937D01*
X61063D02*
Y204787D01*
X68937Y204787D01*
Y203213D02*
Y204787D01*
D16*
X19818Y122500D02*
X19866Y110828D01*
X33443Y214187D02*
X42544Y214137D01*
X274955Y226045D02*
X274884Y227035D01*
X274673Y228005D01*
X274326Y228934D01*
X273851Y229805D01*
X273256Y230600D01*
X272554Y231301D01*
X271760Y231896D01*
X270889Y232371D01*
X269959Y232718D01*
X268990Y232929D01*
X268000Y233000D01*
X269Y59520D02*
X311Y58508D01*
X436Y57503D01*
X644Y56511D01*
X933Y55540D01*
X1302Y54597D01*
X1747Y53687D01*
X2265Y52817D01*
X2854Y51992D01*
X3509Y51219D01*
X4226Y50503D01*
X4999Y49849D01*
X5824Y49261D01*
X6694Y48743D01*
X7604Y48298D01*
X8548Y47930D01*
X9519Y47642D01*
X10511Y47435D01*
X11472Y233000D02*
X10472Y232956D01*
X9480Y232826D01*
X8503Y232609D01*
X7548Y232308D01*
X6624Y231925D01*
X5736Y231463D01*
X4892Y230925D01*
X4098Y230316D01*
X3360Y229640D01*
X2684Y228902D01*
X2075Y228108D01*
X1537Y227264D01*
X1075Y226376D01*
X692Y225452D01*
X391Y224497D01*
X174Y223520D01*
X44Y222528D01*
X0Y221528D01*
X80127Y233123D02*
X100995D01*
X109884Y242012D01*
X158285Y10330D02*
X159404Y9211D01*
Y8307D02*
Y9211D01*
Y8307D02*
X268232D01*
X158285Y10330D02*
Y26236D01*
X268232Y8307D02*
X274933Y26054D01*
X274955Y226045D01*
X120798Y31598D02*
X152923D01*
X158285Y26236D01*
X109884Y242012D02*
X231322D01*
X47300Y233123D02*
X80127D01*
X11925D02*
X47300D01*
X231322Y242012D02*
X240322Y233012D01*
X267500D01*
X10511Y47435D02*
X120798Y31598D01*
X0Y221528D02*
X269Y59520D01*
X274955Y226045D02*
X274884Y227035D01*
X274673Y228005D01*
X274326Y228934D01*
X273851Y229805D01*
X273256Y230600D01*
X272554Y231301D01*
X271760Y231896D01*
X270889Y232371D01*
X269959Y232718D01*
X268990Y232929D01*
X268000Y233000D01*
X269Y59520D02*
X311Y58508D01*
X436Y57503D01*
X644Y56511D01*
X933Y55540D01*
X1302Y54597D01*
X1747Y53687D01*
X2265Y52817D01*
X2854Y51992D01*
X3509Y51219D01*
X4226Y50503D01*
X4999Y49849D01*
X5824Y49261D01*
X6694Y48743D01*
X7604Y48298D01*
X8548Y47930D01*
X9519Y47642D01*
X10511Y47435D01*
X11472Y233000D02*
X10472Y232956D01*
X9480Y232826D01*
X8503Y232609D01*
X7548Y232308D01*
X6624Y231925D01*
X5736Y231463D01*
X4892Y230925D01*
X4098Y230316D01*
X3360Y229640D01*
X2684Y228902D01*
X2075Y228108D01*
X1537Y227264D01*
X1075Y226376D01*
X692Y225452D01*
X391Y224497D01*
X174Y223520D01*
X44Y222528D01*
X0Y221528D01*
X80127Y233123D02*
X100995D01*
X109884Y242012D01*
X158285Y10330D02*
X159404Y9211D01*
Y8307D02*
Y9211D01*
Y8307D02*
X268232D01*
X158285Y10330D02*
Y26236D01*
X268232Y8307D02*
X274933Y26054D01*
X274955Y226045D01*
X120798Y31598D02*
X152923D01*
X158285Y26236D01*
X109884Y242012D02*
X231322D01*
X47300Y233123D02*
X80127D01*
X11925D02*
X47300D01*
X231322Y242012D02*
X240322Y233012D01*
X267500D01*
X10511Y47435D02*
X120798Y31598D01*
X0Y221528D02*
X269Y59520D01*
D17*
X175139Y36542D02*
X174139Y35542D01*
Y33543D01*
X175139Y32543D01*
X179137D01*
X180137Y33543D01*
Y35542D01*
X179137Y36542D01*
X180137Y38541D02*
X176138D01*
X174139Y40541D01*
X176138Y42540D01*
X180137D01*
X177138D01*
Y38541D01*
X180137Y44539D02*
X174139D01*
Y47539D01*
X175139Y48538D01*
X177138D01*
X178138Y47539D01*
Y44539D01*
X177138Y50538D02*
Y54536D01*
X175139Y52537D02*
X179137D01*
X160501Y36002D02*
X159501Y35003D01*
Y33003D01*
X160501Y32004D01*
X164499D01*
X165499Y33003D01*
Y35003D01*
X164499Y36002D01*
X165499Y38002D02*
X161500D01*
X159501Y40001D01*
X161500Y42000D01*
X165499D01*
X162500D01*
Y38002D01*
X165499Y44000D02*
X159501D01*
Y46999D01*
X160501Y47998D01*
X162500D01*
X163500Y46999D01*
Y44000D01*
X162500Y49998D02*
Y53996D01*
X245691Y9753D02*
X249023D01*
X250689Y11419D01*
X249023Y13085D01*
X245691D01*
Y14751D02*
Y16417D01*
Y15584D01*
X250689D01*
Y14751D01*
Y16417D01*
Y18916D02*
X245691D01*
X250689Y22249D01*
X245691D01*
X248190Y23915D02*
Y27247D01*
X246524Y25581D02*
X249856D01*
X196343Y10281D02*
X201342D01*
X199676Y11947D01*
X201342Y13613D01*
X196343D01*
Y15280D02*
Y16946D01*
Y16113D01*
X201342D01*
Y15280D01*
Y16946D01*
Y19445D02*
X196343D01*
Y21944D01*
X197176Y22777D01*
X198843D01*
X199676Y21944D01*
Y19445D01*
X196343Y27775D02*
Y24443D01*
X201342D01*
Y27775D01*
X198843Y24443D02*
Y26109D01*
X201342Y29442D02*
X196343D01*
Y31941D01*
X197176Y32774D01*
X198843D01*
X199676Y31941D01*
Y29442D01*
Y31108D02*
X201342Y32774D01*
D18*
X251482Y154647D02*
D03*
M02*
