G04*
G04 #@! TF.GenerationSoftware,Altium Limited,Altium Designer,22.2.1 (43)*
G04*
G04 Layer_Color=8421504*
%FSLAX25Y25*%
%MOIN*%
G70*
G04*
G04 #@! TF.SameCoordinates,5B388EAC-A044-4A36-8472-2700C52922B7*
G04*
G04*
G04 #@! TF.FilePolarity,Positive*
G04*
G01*
G75*
%ADD16C,0.01968*%
%ADD19R,0.02600X0.03600*%
%ADD20R,0.03600X0.02600*%
%ADD21R,0.01968X0.02953*%
%ADD22R,0.03740X0.03740*%
%ADD23R,0.03740X0.10630*%
%ADD24R,0.13504X0.18504*%
%ADD25R,0.04331X0.03150*%
%ADD26R,0.04331X0.07874*%
%ADD27R,0.25197X0.22835*%
%ADD28R,0.08661X0.04724*%
%ADD29R,0.06102X0.05118*%
%ADD30R,0.10630X0.03740*%
%ADD31R,0.04724X0.08661*%
%ADD32R,0.22835X0.25197*%
%ADD33R,0.01962X0.01962*%
%ADD34R,0.02756X0.03543*%
%ADD35R,0.17100X0.07600*%
G36*
X218757Y62307D02*
Y60732D01*
X212458Y60732D01*
X212458Y62307D01*
X218757Y62307D01*
D02*
G37*
G36*
Y57189D02*
X212458Y57189D01*
X212458Y58764D01*
X218757D01*
Y57189D01*
D02*
G37*
G36*
Y55221D02*
Y53646D01*
X212458Y53646D01*
X212458Y55221D01*
X218757Y55221D01*
D02*
G37*
G36*
X205371Y51677D02*
X201434Y51677D01*
Y63488D01*
X205371D01*
X205371Y51677D01*
D02*
G37*
G36*
X199466Y51677D02*
X195529D01*
Y63488D01*
X199466D01*
Y51677D01*
D02*
G37*
G36*
X193560D02*
X189623Y51677D01*
Y62306D01*
X193560Y62307D01*
Y51677D01*
D02*
G37*
G36*
X187655D02*
X183718D01*
Y64473D01*
X187655D01*
Y51677D01*
D02*
G37*
G36*
X218757Y50102D02*
X212458Y50102D01*
Y51677D01*
X218757D01*
Y50102D01*
D02*
G37*
G36*
Y46559D02*
X212458Y46559D01*
Y48134D01*
X218757D01*
Y46559D01*
D02*
G37*
G36*
Y43016D02*
X212458Y43016D01*
Y44591D01*
X218757D01*
Y43016D01*
D02*
G37*
G36*
Y39472D02*
X212458Y39472D01*
Y41047D01*
X218757D01*
Y39472D01*
D02*
G37*
G36*
X193560Y39472D02*
X189623Y39473D01*
X189623Y50102D01*
X193560D01*
Y39472D01*
D02*
G37*
G36*
X205371Y50102D02*
X205371Y38291D01*
X201434D01*
Y50102D01*
X205371Y50102D01*
D02*
G37*
G36*
X199466Y38291D02*
X195529D01*
Y50102D01*
X199466D01*
Y38291D01*
D02*
G37*
G36*
X187655Y37307D02*
X183718D01*
Y50102D01*
X187655D01*
Y37307D01*
D02*
G37*
D16*
X-1000Y232850D02*
X-880Y232730D01*
X274955Y226045D02*
X274884Y227035D01*
X274673Y228005D01*
X274326Y228934D01*
X273851Y229805D01*
X273256Y230600D01*
X272554Y231301D01*
X271760Y231896D01*
X270889Y232371D01*
X269959Y232718D01*
X268990Y232929D01*
X268000Y233000D01*
X269Y59520D02*
X311Y58508D01*
X436Y57503D01*
X644Y56511D01*
X933Y55540D01*
X1302Y54597D01*
X1747Y53687D01*
X2265Y52817D01*
X2854Y51992D01*
X3509Y51219D01*
X4226Y50503D01*
X4999Y49849D01*
X5824Y49261D01*
X6694Y48743D01*
X7604Y48298D01*
X8548Y47930D01*
X9519Y47642D01*
X10511Y47435D01*
X11472Y233000D02*
X10472Y232956D01*
X9480Y232826D01*
X8503Y232609D01*
X7548Y232308D01*
X6624Y231925D01*
X5736Y231463D01*
X4892Y230925D01*
X4098Y230316D01*
X3360Y229640D01*
X2684Y228902D01*
X2075Y228108D01*
X1537Y227264D01*
X1075Y226376D01*
X692Y225452D01*
X391Y224497D01*
X174Y223520D01*
X44Y222528D01*
X0Y221528D01*
X80127Y233123D02*
X100995D01*
X109884Y242012D01*
X158285Y10330D02*
X159404Y9211D01*
Y8307D02*
Y9211D01*
Y8307D02*
X268232D01*
X158285Y10330D02*
Y26236D01*
X268232Y8307D02*
X274933Y26054D01*
X274955Y226045D01*
X120798Y31598D02*
X152923D01*
X158285Y26236D01*
X109884Y242012D02*
X231322D01*
X47300Y233123D02*
X80127D01*
X11925D02*
X47300D01*
X231322Y242012D02*
X240322Y233012D01*
X267500D01*
X10511Y47435D02*
X120798Y31598D01*
X0Y221528D02*
X269Y59520D01*
X274955Y226045D02*
X274884Y227035D01*
X274673Y228005D01*
X274326Y228934D01*
X273851Y229805D01*
X273256Y230600D01*
X272554Y231301D01*
X271760Y231896D01*
X270889Y232371D01*
X269959Y232718D01*
X268990Y232929D01*
X268000Y233000D01*
X269Y59520D02*
X311Y58508D01*
X436Y57503D01*
X644Y56511D01*
X933Y55540D01*
X1302Y54597D01*
X1747Y53687D01*
X2265Y52817D01*
X2854Y51992D01*
X3509Y51219D01*
X4226Y50503D01*
X4999Y49849D01*
X5824Y49261D01*
X6694Y48743D01*
X7604Y48298D01*
X8548Y47930D01*
X9519Y47642D01*
X10511Y47435D01*
X11472Y233000D02*
X10472Y232956D01*
X9480Y232826D01*
X8503Y232609D01*
X7548Y232308D01*
X6624Y231925D01*
X5736Y231463D01*
X4892Y230925D01*
X4098Y230316D01*
X3360Y229640D01*
X2684Y228902D01*
X2075Y228108D01*
X1537Y227264D01*
X1075Y226376D01*
X692Y225452D01*
X391Y224497D01*
X174Y223520D01*
X44Y222528D01*
X0Y221528D01*
X80127Y233123D02*
X100995D01*
X109884Y242012D01*
X158285Y10330D02*
X159404Y9211D01*
Y8307D02*
Y9211D01*
Y8307D02*
X268232D01*
X158285Y10330D02*
Y26236D01*
X268232Y8307D02*
X274933Y26054D01*
X274955Y226045D01*
X120798Y31598D02*
X152923D01*
X158285Y26236D01*
X109884Y242012D02*
X231322D01*
X47300Y233123D02*
X80127D01*
X11925D02*
X47300D01*
X231322Y242012D02*
X240322Y233012D01*
X267500D01*
X10511Y47435D02*
X120798Y31598D01*
X0Y221528D02*
X269Y59520D01*
D19*
X241134Y159022D02*
D03*
X235134D02*
D03*
X235289Y141301D02*
D03*
X241289D02*
D03*
X221735Y132989D02*
D03*
X215735D02*
D03*
X226486Y233685D02*
D03*
X220486D02*
D03*
X210833Y233772D02*
D03*
X204833D02*
D03*
X117743Y236000D02*
D03*
X123743D02*
D03*
X138949D02*
D03*
X144949D02*
D03*
X49500Y206908D02*
D03*
X55500D02*
D03*
X148500Y95000D02*
D03*
X154500D02*
D03*
X135686Y94968D02*
D03*
X141686D02*
D03*
X35000Y201000D02*
D03*
X41000D02*
D03*
X22000D02*
D03*
X28000D02*
D03*
X134804Y202211D02*
D03*
X128804D02*
D03*
X92000Y213843D02*
D03*
X86000D02*
D03*
X134999Y209399D02*
D03*
X128999D02*
D03*
X121565Y202047D02*
D03*
X115565D02*
D03*
X210602Y206770D02*
D03*
X204602D02*
D03*
X105500Y213856D02*
D03*
X99500D02*
D03*
X41000Y194500D02*
D03*
X35000Y194500D02*
D03*
X22000Y194500D02*
D03*
X28000D02*
D03*
X115686Y209854D02*
D03*
X121686D02*
D03*
D20*
X235572Y147186D02*
D03*
Y153186D02*
D03*
X70958Y44959D02*
D03*
Y50959D02*
D03*
X251500Y203833D02*
D03*
Y197833D02*
D03*
X229742Y52008D02*
D03*
Y46008D02*
D03*
X51631Y95577D02*
D03*
Y89577D02*
D03*
X51717Y78000D02*
D03*
Y84000D02*
D03*
X237000Y208500D02*
D03*
Y202500D02*
D03*
X226500Y209000D02*
D03*
Y203000D02*
D03*
X62392Y191020D02*
D03*
Y185020D02*
D03*
X49331Y187528D02*
D03*
Y193528D02*
D03*
X13898D02*
D03*
Y187528D02*
D03*
X235349Y83570D02*
D03*
Y77570D02*
D03*
X235089Y96300D02*
D03*
Y90300D02*
D03*
X258866Y155709D02*
D03*
Y149709D02*
D03*
D21*
X88240Y43697D02*
D03*
X84500D02*
D03*
X80760Y43697D02*
D03*
X80760Y54130D02*
D03*
X84500D02*
D03*
X88240D02*
D03*
D22*
X87090Y62186D02*
D03*
X81185D02*
D03*
D23*
X215555Y84056D02*
D03*
X228548D02*
D03*
X215569Y72926D02*
D03*
X228561D02*
D03*
D24*
X211368Y19000D02*
D03*
X236273Y18500D02*
D03*
X183640Y18473D02*
D03*
X260500Y18500D02*
D03*
X166668D02*
D03*
D25*
X38000Y228100D02*
D03*
D26*
Y220620D02*
D03*
D27*
X16965Y87524D02*
D03*
D28*
X41768Y96500D02*
D03*
X41768Y78547D02*
D03*
D29*
X27201Y68376D02*
D03*
Y50660D02*
D03*
X58500Y68376D02*
D03*
Y50660D02*
D03*
D30*
X238243Y38991D02*
D03*
Y51983D02*
D03*
D31*
X267494Y73808D02*
D03*
X249542D02*
D03*
D32*
X258518Y49005D02*
D03*
D33*
X251500Y157107D02*
D03*
Y148052D02*
D03*
D34*
X65000Y207740D02*
D03*
X67559Y200260D02*
D03*
X62441D02*
D03*
D35*
X67360Y94742D02*
D03*
X97860D02*
D03*
M02*
