M48
;Layer_Color=9474304
;FILE_FORMAT=2:4
INCH,TZ
;TYPE=PLATED
T1F00S00C0.0197
T2F00S00C0.0276
T3F00S00C0.0280
T4F00S00C0.0300
T5F00S00C0.0394
T6F00S00C0.0400
T7F00S00C0.0433
T9F00S00C0.0984
T10F00S00C0.1260
%
T01
X18449Y2512
X22471Y5907
X11391Y5567
X6667
X6076Y4386
X5532Y4508
X4437Y5038
X4520Y6092
X4824Y6875
X3714Y6749
Y9111
X3124Y10292
X1943
X5486
X5932Y10945
X5995Y11713
X5150Y11450
X5486Y12654
X5306Y13399
X4883Y13823
X3714Y13835
X2533
X3124Y15016
X2521Y16185
X3124Y17378
X4305
X5220Y19741
X10209Y20242
X9665Y21386
X10953Y21384
X10801Y18560
X11391Y17378
X12700Y17400
X11750Y15950
X12573Y15016
X10210
X10495Y14509
X10772Y14100
X10097Y10987
X9042Y11372
X9029Y10292
X7848
X7929Y10980
X7258Y11473
X6667Y10292
X5773Y8700
X6966Y7548
X7654Y7494
X8261Y7425
X8100Y8213
X7638Y6635
X9323Y6082
X9869Y6298
X10801Y6749
X11466Y8622
X11391Y10292
X12080Y11110
X12915Y9855
X8747Y12324
X7182Y13267
X6584Y13848
X13323Y13931
X15224Y13735
X16279Y13765
X16116Y15016
X14935
Y17378
X13754
X13163Y16197
X13754Y19741
X14935
X16116
X16652Y18803
X16122Y17885
X16517Y17405
X17082Y16924
X17415Y16592
X18648Y16798
X19069Y16197
X20250
X21431
X21162Y16980
X21731Y17300
X22419Y17239
X23141Y17211
X23301Y18030
X22483Y18055
X22612Y18560
X21431
X21802Y18055
X20250Y18560
X19069
X18510Y18662
X18184Y19088
X18375Y17851
X18904Y17968
X19659Y17620
X19594Y20315
X19891Y20808
X19193Y21116
X18553Y21121
X18151Y20588
X17802Y20194
X17482Y20664
X16682Y21555
X15170Y21573
X14000Y20742
X20840Y19741
X21623Y20460
X24384Y19741
X25565
X26746
X26100Y18600
X24974Y18560
X24411Y18025
X24228Y17589
X24507Y17211
X24100Y16450
X24950Y16400
X26155Y16197
X25758Y15371
X26221Y14602
X25920Y14234
X25452Y14190
X26100Y13800
X24871Y13200
X25030Y12758
X24722Y12014
X25400Y11050
X23550Y11450
X22725Y11860
X22200Y11436
X21740Y11702
X21361Y11980
X20439Y11949
X19412Y11922
X18584Y11956
X18137Y11384
X18300Y13150
X19150Y13050
X19531Y13994
X21431Y13835
X21805Y14420
X22612Y13835
X22574Y13279
X24050Y13600
Y15350
X22612Y16197
X20840Y15016
X18140Y15867
X17297Y10292
X16869Y10105
X16116Y10292
X15724Y10660
X16402Y9281
X13754Y10292
X19469Y10401
X20286Y10376
X21189Y10532
X22171Y10070
X23202Y10292
X23900Y10100
X22700Y9200
X21650Y8747
X21036Y8700
X20356Y8692
X19746
X21651Y7746
X21805Y6636
X25565Y17531
X27185Y17452
X24755Y20813
X21500Y23157
X20883Y23208
X15436Y23539
X13573Y23612
X13902Y22003
X14932Y21978
X16116Y22103
X11500Y23446
X7848Y22103
X6424Y22400
X4454Y22992
T02
X1100Y7600
X1073Y8528
X1119Y9470
X1990Y9500
X3087
X3249Y8550
X3200Y7656
X2100Y7600
T03
X15200Y3657
Y4688
Y5645
X17260Y5506
X17728Y5838
X18577Y5336
Y4789
X18621Y4162
X17879Y4622
X17351Y4638
X17123Y3705
X17708Y3578
X19401Y4672
X19442Y5373
X20841Y4260
X20865Y3674
X20375Y3790
X21837Y3650
X22401
X22371Y4207
X22360Y4601
X22258Y5063
X21825Y4220
X22930Y4187
X22993Y3650
X23524Y3651
X23525Y3650
X23734Y4495
X24781Y4479
X25517Y4435
X26250Y4450
X26200Y5413
X25527Y5450
X25852Y5876
X26511Y5865
X25157
X24845Y5365
X24755Y3525
X24240Y2524
X23066
X23079Y1197
X24249Y1223
X25424Y1274
X26622Y1301
X26686Y2585
X25437Y2537
X21564Y2497
X20738
X20781Y1197
X21602
X12776Y5413
X11571Y5099
X11656Y6248
X12796Y6467
X12750Y7750
X15255Y7567
X15200Y6636
X15340Y8681
X17038Y7908
X17898Y7909
X18098Y7211
X18054Y6436
X17275Y6416
X17237Y7211
X19259Y7235
X19060Y7933
X19941Y7990
X20140Y7293
X19826Y6747
X19495Y6096
X20220Y6147
X19021Y6424
X18589Y6024
X25207Y6546
X25902Y6557
X26561Y6546
T04
X16322Y1350
X16966Y1356
X18004
X18793Y1318
X18900Y2521
X18053Y2522
X16998Y2550
X16297Y2572
T05
X2177Y12950
X4146
Y18659
X3161Y18659
X2177
X9500Y12595
X10500
X11500
X12500
X9245Y9474
X7277
X13500Y12595
X14500
X15500
X16500
X17500
X18500
X19500
X20500
X21500
X22500
X23500
Y22595
X22500
X21500
X20500
X19500
X18500
X17500
X16500
X15500
X14500
X13500
X16050Y23400
X17050
X18050
X19050
X12500Y22595
X11500
X10500
X9500
T06
X8450Y4890
T07
X2561Y11699
X3561
X4561
X26805Y11714
Y12714
Y13714
Y14714
X26600Y17211
Y18211
Y19211
T09
X970Y11600
T10
X1144Y5902
X26344Y10089
X1145Y22106
M30
