G04*
G04 #@! TF.GenerationSoftware,Altium Limited,Altium Designer,22.2.1 (43)*
G04*
G04 Layer_Color=16777215*
%FSLAX25Y25*%
%MOIN*%
G70*
G04*
G04 #@! TF.SameCoordinates,5B388EAC-A044-4A36-8472-2700C52922B7*
G04*
G04*
G04 #@! TF.FilePolarity,Negative*
G04*
G01*
G75*
%ADD12C,0.01000*%
%ADD16C,0.01968*%
%ADD51C,0.06400*%
%ADD52R,0.06400X0.06400*%
%ADD53R,0.08274X0.08274*%
%ADD54C,0.06693*%
%ADD55R,0.06693X0.06693*%
%ADD56C,0.16148*%
%ADD57O,0.08274X0.11030*%
%ADD58C,0.06699*%
%ADD59R,0.06699X0.06699*%
%ADD60C,0.06800*%
%ADD61C,0.07093*%
%ADD62R,0.07093X0.07093*%
%ADD63C,0.15124*%
%ADD64C,0.04800*%
D12*
X97246Y36190D02*
X97930Y36915D01*
X98573Y37677D01*
X99172Y38473D01*
X99727Y39301D01*
X100235Y40159D01*
X100695Y41043D01*
X101105Y41951D01*
X101464Y42881D01*
X101771Y43829D01*
X102025Y44793D01*
X102226Y45769D01*
X102372Y46755D01*
X102463Y47747D01*
X102499Y48743D01*
X102480Y49740D01*
X102406Y50733D01*
X102278Y51722D01*
X102094Y52701D01*
X101857Y53669D01*
X101566Y54623D01*
X101223Y55558D01*
X100829Y56474D01*
X100385Y57366D01*
X99892Y58232D01*
X99352Y59070D01*
X98766Y59876D01*
X98137Y60649D01*
X97466Y61386D01*
X96755Y62084D01*
X96006Y62742D01*
X95223Y63358D01*
X94406Y63929D01*
X93559Y64454D01*
X92684Y64932D01*
X91784Y65360D01*
X90862Y65738D01*
X89921Y66064D01*
X88962Y66338D01*
X87990Y66558D01*
X87007Y66724D01*
X86017Y66836D01*
X85022Y66892D01*
X84026Y66894D01*
X83030Y66840D01*
X82040Y66731D01*
X81056Y66568D01*
X80084Y66350D01*
X79125Y66079D01*
X78182Y65755D01*
X77259Y65379D01*
X76358Y64953D01*
X75482Y64478D01*
X74634Y63955D01*
X73816Y63386D01*
X73030Y62773D01*
X72280Y62116D01*
X71567Y61420D01*
X70894Y60685D01*
X70263Y59914D01*
X69675Y59109D01*
X69133Y58273D01*
X68638Y57408D01*
X68191Y56517D01*
X67794Y55603D01*
X67449Y54668D01*
X67156Y53715D01*
X66916Y52748D01*
X66730Y51769D01*
X66598Y50781D01*
X66522Y49787D01*
X66500Y48791D01*
X66534Y47795D01*
X66623Y46802D01*
X66766Y45816D01*
X66964Y44839D01*
X67216Y43874D01*
X67520Y42926D01*
X67877Y41995D01*
X68285Y41085D01*
X68742Y40200D01*
D16*
X274955Y226045D02*
X274884Y227035D01*
X274673Y228005D01*
X274326Y228934D01*
X273851Y229805D01*
X273256Y230600D01*
X272554Y231301D01*
X271760Y231896D01*
X270889Y232371D01*
X269959Y232718D01*
X268990Y232929D01*
X268000Y233000D01*
X269Y59520D02*
X311Y58508D01*
X436Y57503D01*
X644Y56511D01*
X933Y55540D01*
X1302Y54597D01*
X1747Y53687D01*
X2265Y52817D01*
X2854Y51992D01*
X3509Y51219D01*
X4226Y50503D01*
X4999Y49849D01*
X5824Y49261D01*
X6694Y48743D01*
X7604Y48298D01*
X8548Y47930D01*
X9519Y47642D01*
X10511Y47435D01*
X11472Y233000D02*
X10472Y232956D01*
X9480Y232826D01*
X8503Y232609D01*
X7548Y232308D01*
X6624Y231925D01*
X5736Y231463D01*
X4892Y230925D01*
X4098Y230316D01*
X3360Y229640D01*
X2684Y228902D01*
X2075Y228108D01*
X1537Y227264D01*
X1075Y226376D01*
X692Y225452D01*
X391Y224497D01*
X174Y223520D01*
X44Y222528D01*
X0Y221528D01*
X80127Y233123D02*
X100995D01*
X109884Y242012D01*
X158285Y10330D02*
X159404Y9211D01*
Y8307D02*
Y9211D01*
Y8307D02*
X268232D01*
X158285Y10330D02*
Y26236D01*
X268232Y8307D02*
X274933Y26054D01*
X274955Y226045D01*
X120798Y31598D02*
X152923D01*
X158285Y26236D01*
X109884Y242012D02*
X231322D01*
X47300Y233123D02*
X80127D01*
X11925D02*
X47300D01*
X231322Y242012D02*
X240322Y233012D01*
X267500D01*
X10511Y47435D02*
X120798Y31598D01*
X0Y221528D02*
X269Y59520D01*
X274955Y226045D02*
X274884Y227035D01*
X274673Y228005D01*
X274326Y228934D01*
X273851Y229805D01*
X273256Y230600D01*
X272554Y231301D01*
X271760Y231896D01*
X270889Y232371D01*
X269959Y232718D01*
X268990Y232929D01*
X268000Y233000D01*
X269Y59520D02*
X311Y58508D01*
X436Y57503D01*
X644Y56511D01*
X933Y55540D01*
X1302Y54597D01*
X1747Y53687D01*
X2265Y52817D01*
X2854Y51992D01*
X3509Y51219D01*
X4226Y50503D01*
X4999Y49849D01*
X5824Y49261D01*
X6694Y48743D01*
X7604Y48298D01*
X8548Y47930D01*
X9519Y47642D01*
X10511Y47435D01*
X11472Y233000D02*
X10472Y232956D01*
X9480Y232826D01*
X8503Y232609D01*
X7548Y232308D01*
X6624Y231925D01*
X5736Y231463D01*
X4892Y230925D01*
X4098Y230316D01*
X3360Y229640D01*
X2684Y228902D01*
X2075Y228108D01*
X1537Y227264D01*
X1075Y226376D01*
X692Y225452D01*
X391Y224497D01*
X174Y223520D01*
X44Y222528D01*
X0Y221528D01*
X80127Y233123D02*
X100995D01*
X109884Y242012D01*
X158285Y10330D02*
X159404Y9211D01*
Y8307D02*
Y9211D01*
Y8307D02*
X268232D01*
X158285Y10330D02*
Y26236D01*
X268232Y8307D02*
X274933Y26054D01*
X274955Y226045D01*
X120798Y31598D02*
X152923D01*
X158285Y26236D01*
X109884Y242012D02*
X231322D01*
X47300Y233123D02*
X80127D01*
X11925D02*
X47300D01*
X231322Y242012D02*
X240322Y233012D01*
X267500D01*
X10511Y47435D02*
X120798Y31598D01*
X0Y221528D02*
X269Y59520D01*
D51*
X190500Y234000D02*
D03*
X180500D02*
D03*
X170500D02*
D03*
X225000Y125946D02*
D03*
X215000D02*
D03*
X205000D02*
D03*
X195000D02*
D03*
X185000D02*
D03*
X175000D02*
D03*
X165000D02*
D03*
X155000D02*
D03*
X145000D02*
D03*
X135000D02*
D03*
X125000D02*
D03*
X115000D02*
D03*
X105000D02*
D03*
X95000D02*
D03*
X235000Y225946D02*
D03*
X225000D02*
D03*
X215000D02*
D03*
X205000D02*
D03*
X195000D02*
D03*
X185000D02*
D03*
X175000D02*
D03*
X165000D02*
D03*
X155000D02*
D03*
X145000D02*
D03*
X135000D02*
D03*
X125000D02*
D03*
X115000D02*
D03*
X105000D02*
D03*
X95000D02*
D03*
X72768Y94742D02*
D03*
X92453D02*
D03*
D52*
X160500Y234000D02*
D03*
D53*
X235000Y125946D02*
D03*
D54*
X268054Y117145D02*
D03*
Y127145D02*
D03*
Y137145D02*
D03*
X266000Y192109D02*
D03*
Y182108D02*
D03*
D55*
X268054Y147145D02*
D03*
X266000Y172108D02*
D03*
D56*
X263440Y100886D02*
D03*
X11440Y59021D02*
D03*
X11452Y221056D02*
D03*
D57*
X10114Y157047D02*
D03*
X53114D02*
D03*
D58*
X31614Y186591D02*
D03*
X21772D02*
D03*
X41457Y186591D02*
D03*
X21772Y129504D02*
D03*
D59*
X41457D02*
D03*
D60*
X163224Y13500D02*
D03*
X169982Y25500D02*
D03*
X180039Y13562D02*
D03*
X189004Y25207D02*
D03*
X169663Y13562D02*
D03*
X162974Y25721D02*
D03*
X187934Y13181D02*
D03*
X180534Y25220D02*
D03*
D61*
X25609Y116990D02*
D03*
X35609D02*
D03*
D62*
X45608D02*
D03*
D63*
X9702Y116000D02*
D03*
D64*
X240500Y136000D02*
D03*
X151700Y215726D02*
D03*
X115000Y234465D02*
D03*
X154359Y235394D02*
D03*
X208833Y232084D02*
D03*
X248706Y132001D02*
D03*
X247223Y120139D02*
D03*
X250300Y127579D02*
D03*
X227246Y118595D02*
D03*
X217399Y117022D02*
D03*
X185842Y119555D02*
D03*
X259203Y142343D02*
D03*
X218051Y144195D02*
D03*
X140000Y207424D02*
D03*
X215000Y231565D02*
D03*
X135734Y236123D02*
D03*
M02*
